<svg width="59" height="59" viewBox="0 0 59 59" fill="none" xmlns="http://www.w3.org/2000/svg">
<path d="M29.5 20.2812C29.989 20.2812 30.4579 20.4755 30.8037 20.8213C31.1495 21.167 31.3437 21.636 31.3437 22.125V23.1993C32.5413 23.3841 33.6333 23.9913 34.4223 24.9111C35.2113 25.8308 35.6453 27.0025 35.6458 28.2143C35.6458 28.7033 35.4515 29.1722 35.1058 29.518C34.76 29.8638 34.291 30.058 33.802 30.058C33.3131 30.058 32.8441 29.8638 32.4983 29.518C32.1526 29.1722 31.9583 28.7033 31.9583 28.2143C31.9583 28.0325 31.9225 27.8526 31.8529 27.6846C31.7834 27.5167 31.6814 27.3641 31.5529 27.2356C31.4244 27.1071 31.2718 27.0052 31.1039 26.9356C30.936 26.866 30.756 26.8302 30.5743 26.8302H28.8854C28.3964 26.8302 27.9274 27.0245 27.5817 27.3703C27.2359 27.716 27.0416 28.185 27.0416 28.674V29.3255C27.0418 29.7008 27.1565 30.0671 27.3705 30.3755C27.5844 30.6839 27.8874 30.9196 28.2388 31.0512L32.0566 32.4844C33.1106 32.8796 34.0189 33.5871 34.6603 34.5122C35.3016 35.4373 35.6454 36.536 35.6458 37.6617V38.3131C35.6465 39.567 35.2212 40.7839 34.4395 41.7644C33.6578 42.7448 32.5662 43.4305 31.3437 43.7092V44.8646C31.3437 45.3536 31.1495 45.8225 30.8037 46.1683C30.4579 46.5141 29.989 46.7083 29.5 46.7083C29.011 46.7083 28.542 46.5141 28.1962 46.1683C27.8505 45.8225 27.6562 45.3536 27.6562 44.8646V43.7878C26.4575 43.6054 25.3641 42.9989 24.5746 42.0786C23.7852 41.1583 23.3521 39.9853 23.3541 38.7728C23.3541 38.2838 23.5484 37.8149 23.8942 37.4691C24.2399 37.1233 24.7089 36.9291 25.1979 36.9291C25.6869 36.9291 26.1558 37.1233 26.5016 37.4691C26.8474 37.8149 27.0416 38.2838 27.0416 38.7728C27.0416 39.5398 27.6611 40.1569 28.4257 40.1569H30.1145C30.6035 40.1569 31.0725 39.9626 31.4183 39.6169C31.764 39.2711 31.9583 38.8021 31.9583 38.3131V37.6617C31.9581 37.2864 31.8434 36.92 31.6295 36.6117C31.4155 36.3033 31.1126 36.0675 30.7611 35.9359L26.9433 34.5052C25.8889 34.1098 24.9803 33.402 24.339 32.4764C23.6976 31.5508 23.354 30.4515 23.3541 29.3255V28.674C23.354 27.4205 23.7796 26.2042 24.5612 25.2243C25.3428 24.2444 26.4341 23.559 27.6562 23.2804V22.125C27.6562 21.636 27.8505 21.167 28.1962 20.8213C28.542 20.4755 29.011 20.2812 29.5 20.2812Z" fill="#0D99FF"/>
<path fill-rule="evenodd" clip-rule="evenodd" d="M32.187 7.40941C32.0331 7.32311 31.8747 7.24515 31.7125 7.17587V4.91421C31.7125 4.62366 31.6553 4.33595 31.5441 4.06752C31.4329 3.79909 31.2699 3.55518 31.0645 3.34973C30.859 3.14428 30.6151 2.98131 30.3467 2.87012C30.0783 2.75893 29.7905 2.70171 29.5 2.70171C29.2094 2.70171 28.9217 2.75893 28.6533 2.87012C28.3849 2.98131 28.141 3.14428 27.9355 3.34973C27.7301 3.55518 27.5671 3.79909 27.4559 4.06752C27.3447 4.33595 27.2875 4.62366 27.2875 4.91421V7.17587C27.1269 7.24634 26.9687 7.32419 26.813 7.40941L13.9068 14.5804C13.0446 15.0595 12.3262 15.7606 11.8261 16.6108C11.326 17.461 11.0624 18.4295 11.0625 19.4159V48.5521C11.0625 50.0191 11.6453 51.4259 12.6826 52.4633C13.7199 53.5006 15.1268 54.0833 16.5938 54.0833H42.4062C43.8732 54.0833 45.2801 53.5006 46.3174 52.4633C47.3547 51.4259 47.9375 50.0191 47.9375 48.5521V19.4159C47.9376 18.4295 47.674 17.461 47.1739 16.6108C46.6738 15.7606 45.9554 15.0595 45.0932 14.5804L32.187 7.40941ZM29.5 16.3479C30.0868 16.3479 30.6495 16.1148 31.0645 15.6999C31.4794 15.285 31.7125 14.7222 31.7125 14.1354V11.3649L43.3011 17.8057C43.5884 17.9652 43.8279 18.1986 43.9947 18.4817C44.1615 18.7648 44.2497 19.0873 44.25 19.4159V48.5521C44.25 49.0411 44.0557 49.51 43.71 49.8558C43.3642 50.2016 42.8952 50.3958 42.4062 50.3958H16.5938C16.1048 50.3958 15.6358 50.2016 15.29 49.8558C14.9443 49.51 14.75 49.0411 14.75 48.5521V19.4159C14.7499 19.0869 14.8378 18.7638 15.0047 18.4803C15.1715 18.1967 15.4112 17.9629 15.6989 17.8032L27.2875 11.3649V14.1354C27.2875 14.7222 27.5206 15.285 27.9355 15.6999C28.3504 16.1148 28.9132 16.3479 29.5 16.3479Z" fill="#0D99FF"/>
</svg>
