<svg width="181" height="181" viewBox="0 0 181 181" fill="none" xmlns="http://www.w3.org/2000/svg">
<path d="M158.375 33.9375H22.625C19.6247 33.9375 16.7474 35.1293 14.6259 37.2509C12.5043 39.3724 11.3125 42.2497 11.3125 45.25V135.75C11.3125 138.75 12.5043 141.628 14.6259 143.749C16.7474 145.871 19.6247 147.062 22.625 147.062H158.375C161.375 147.062 164.253 145.871 166.374 143.749C168.496 141.628 169.688 138.75 169.688 135.75V45.25C169.688 42.2497 168.496 39.3724 166.374 37.2509C164.253 35.1293 161.375 33.9375 158.375 33.9375ZM158.375 67.875L90.5 101.812L22.625 67.875V45.25L90.5 79.1875L158.375 45.25V67.875Z" fill="#42A5F5"/>
</svg>
