<svg width="59" height="59" viewBox="0 0 59 59" fill="none" xmlns="http://www.w3.org/2000/svg">
<path d="M4.30209 32.7573C3.60556 32.7573 3.02212 32.5222 2.55176 32.0518C2.0814 31.5814 1.8454 30.9972 1.84376 30.299C1.84212 29.6008 2.07812 29.0174 2.55176 28.5487C3.0254 28.0799 3.60884 27.8439 4.30209 27.8407H12.9063C13.6028 27.8407 14.187 28.0767 14.659 28.5487C15.1311 29.0207 15.3662 29.6041 15.3646 30.299C15.363 30.9939 15.127 31.5782 14.6566 32.0518C14.1862 32.5254 13.6028 32.7606 12.9063 32.7573H4.30209ZM17.2083 49.1667C15.1597 49.1667 13.4184 48.4497 11.9844 47.0157C10.5504 45.5816 9.83334 43.8403 9.83334 41.7917H6.76043C5.94098 41.7917 5.28543 41.4844 4.79376 40.8698C4.30209 40.2552 4.15869 39.5587 4.36355 38.7802L4.91668 36.4448H12.599C14.3198 36.4448 15.7743 35.8507 16.9625 34.6625C18.1507 33.4743 18.7448 32.0198 18.7448 30.299C18.7448 29.7664 18.6833 29.2747 18.5604 28.824C18.4375 28.3733 18.2736 27.9226 18.0688 27.4719H20.4042C22.125 27.4719 23.5795 26.8778 24.7677 25.6896C25.9559 24.5014 26.55 23.0469 26.55 21.3261C26.55 19.6052 25.9559 18.1507 24.7677 16.9625C23.5795 15.7743 22.125 15.1802 20.4042 15.1802H11.0625L11.4313 13.7052C11.6771 12.558 12.2409 11.6263 13.1226 10.9101C14.0043 10.1939 15.0385 9.83501 16.225 9.83337H41.1771C41.9965 9.83337 42.6521 10.1407 43.1438 10.7552C43.6354 11.3698 43.7788 12.0664 43.574 12.8448L41.9761 19.6667H46.7083C47.4868 19.6667 48.2243 19.8412 48.9208 20.1903C49.6174 20.5394 50.191 21.0204 50.6417 21.6334L55.2511 27.7177C55.7018 28.2914 55.9886 28.9166 56.1115 29.5935C56.2344 30.2703 56.2344 30.9562 56.1115 31.6511L54.4521 39.825C54.3292 40.3987 54.0424 40.8698 53.5917 41.2386C53.141 41.6073 52.6288 41.7917 52.0552 41.7917H49.1667C49.1667 43.8403 48.4497 45.5816 47.0156 47.0157C45.5816 48.4497 43.8403 49.1667 41.7917 49.1667C39.7431 49.1667 38.0017 48.4497 36.5677 47.0157C35.1337 45.5816 34.4167 43.8403 34.4167 41.7917H24.5833C24.5833 43.8403 23.8663 45.5816 22.4323 47.0157C20.9983 48.4497 19.257 49.1667 17.2083 49.1667ZM9.21876 23.7844C8.52223 23.7844 7.93879 23.5484 7.46843 23.0764C6.99806 22.6044 6.76206 22.021 6.76043 21.3261C6.75879 20.6312 6.99479 20.0477 7.46843 19.5757C7.94206 19.1037 8.52551 18.8677 9.21876 18.8677H20.2813C20.9778 18.8677 21.5621 19.1037 22.0341 19.5757C22.5061 20.0477 22.7412 20.6312 22.7396 21.3261C22.738 22.021 22.502 22.6052 22.0316 23.0789C21.5612 23.5525 20.9778 23.7877 20.2813 23.7844H9.21876ZM17.2083 44.25C17.9049 44.25 18.4891 44.014 18.9611 43.542C19.4331 43.07 19.6683 42.4866 19.6667 41.7917C19.665 41.0968 19.429 40.5134 18.9587 40.0414C18.4883 39.5694 17.9049 39.3334 17.2083 39.3334C16.5118 39.3334 15.9284 39.5694 15.458 40.0414C14.9876 40.5134 14.7516 41.0968 14.75 41.7917C14.7484 42.4866 14.9844 43.0709 15.458 43.5445C15.9316 44.0181 16.5151 44.2533 17.2083 44.25ZM41.7917 44.25C42.4882 44.25 43.0725 44.014 43.5445 43.542C44.0165 43.07 44.2517 42.4866 44.25 41.7917C44.2484 41.0968 44.0124 40.5134 43.542 40.0414C43.0717 39.5694 42.4882 39.3334 41.7917 39.3334C41.0951 39.3334 40.5117 39.5694 40.0413 40.0414C39.571 40.5134 39.335 41.0968 39.3333 41.7917C39.3317 42.4866 39.5677 43.0709 40.0413 43.5445C40.515 44.0181 41.0984 44.2533 41.7917 44.25ZM39.149 31.9584H51.0104L51.2563 30.6677L46.7083 24.5834H40.8698L39.149 31.9584Z" fill="#0D99FF"/>
</svg>
