<svg width="59" height="59" viewBox="0 0 59 59" fill="none" xmlns="http://www.w3.org/2000/svg">
<path d="M10.534 20.5123C9.09807 20.899 7.82972 21.7482 6.92532 22.9286C6.02092 24.109 5.53094 25.5546 5.53125 27.0417V34.4167C5.53125 36.2096 6.24351 37.9292 7.51133 39.197C8.77915 40.4648 10.4987 41.1771 12.2917 41.1771H18.4375C18.9265 41.1771 19.3955 40.9828 19.7412 40.6371C20.087 40.2913 20.2812 39.8223 20.2812 39.3333V22.125C20.2812 21.636 20.087 21.167 19.7412 20.8213C19.3955 20.4755 18.9265 20.2813 18.4375 20.2813H14.2952C15.3498 14.2092 21.5325 9.21875 29.5 9.21875C37.4675 9.21875 43.6502 14.2092 44.7048 20.2813H40.5625C40.0735 20.2813 39.6045 20.4755 39.2588 20.8213C38.913 21.167 38.7188 21.636 38.7188 22.125V39.3333C38.7188 40.3511 39.5448 41.1771 40.5625 41.1771H44.6507C44.2356 42.9272 43.2421 44.4861 41.831 45.6014C40.4199 46.7168 38.6737 47.3233 36.875 47.3229H34.0602C33.6323 46.2652 32.8499 45.3892 31.847 44.8451C30.8441 44.301 29.6832 44.1226 28.5632 44.3405C27.4432 44.5585 26.4339 45.1592 25.7082 46.0397C24.9825 46.9202 24.5857 48.0257 24.5857 49.1667C24.5857 50.3077 24.9825 51.4132 25.7082 52.2937C26.4339 53.1742 27.4432 53.7749 28.5632 53.9928C29.6832 54.2108 30.8441 54.0324 31.847 53.4883C32.8499 52.9441 33.6323 52.0682 34.0602 51.0104H36.875C42.775 51.0104 47.6523 46.6346 48.4415 40.9534C49.8831 40.571 51.1579 39.7226 52.0672 38.5403C52.9765 37.358 53.4692 35.9082 53.4688 34.4167V27.0417C53.4691 25.5546 52.9791 24.109 52.0747 22.9286C51.1703 21.7482 49.9019 20.899 48.466 20.5123C47.527 11.8983 39.1514 5.53125 29.5 5.53125C19.8486 5.53125 11.473 11.8983 10.534 20.5123Z" fill="#0D99FF"/>
</svg>
