<svg width="44" height="44" viewBox="0 0 44 44" fill="none" xmlns="http://www.w3.org/2000/svg">
<g clip-path="url(#clip0_10_152)">
<path d="M0.938933 21.7367C0.937902 25.4336 1.9114 29.0433 3.7625 32.2249L0.761902 43.0956L11.9737 40.1787C15.0747 41.8537 18.5491 42.7314 22.0799 42.7317H22.0892C33.7449 42.7317 43.2329 33.3206 43.2379 21.7532C43.2401 16.148 41.0422 10.8772 37.0488 6.91177C33.0562 2.94666 27.7461 0.761835 22.0883 0.759277C10.4312 0.759277 0.943917 10.1698 0.939105 21.7367" fill="url(#paint0_linear_10_152)"/>
<path d="M0.183906 21.7299C0.182703 25.5597 1.19109 29.2985 3.10819 32.5941L0 43.8545L11.6138 40.833C14.8137 42.5642 18.4166 43.4769 22.0827 43.4783H22.0921C34.166 43.4783 43.9948 33.7287 44 21.7473C44.0021 15.9406 41.7251 10.4804 37.5891 6.37284C33.4525 2.26583 27.9525 0.0023876 22.0921 0C10.0162 0 0.188719 9.74822 0.183906 21.7299ZM7.10033 32.0265L6.66669 31.3435C4.84378 28.4675 3.88162 25.144 3.883 21.7312C3.88678 11.7724 12.055 3.67008 22.099 3.67008C26.9631 3.67212 31.5343 5.55355 34.9724 8.96713C38.4105 12.3811 40.3023 16.9192 40.3011 21.7459C40.2966 31.7047 32.1283 39.8081 22.0921 39.8081H22.0849C18.817 39.8064 15.6121 38.9356 12.8171 37.29L12.1519 36.8986L5.26006 38.6915L7.10033 32.0265Z" fill="url(#paint1_linear_10_152)"/>
<path d="M16.6166 12.6455C16.2065 11.7411 15.7749 11.7228 15.3849 11.707C15.0656 11.6933 14.7005 11.6944 14.3358 11.6944C13.9707 11.6944 13.3776 11.8306 12.8762 12.3738C12.3743 12.9175 10.9601 14.2313 10.9601 16.9036C10.9601 19.5758 12.9218 22.1585 13.1952 22.5213C13.469 22.8833 16.9821 28.5426 22.5461 30.7197C27.1702 32.529 28.1112 32.1692 29.1148 32.0785C30.1185 31.9881 32.3536 30.7649 32.8096 29.4966C33.2659 28.2285 33.2659 27.1414 33.1291 26.9143C32.9923 26.688 32.6272 26.552 32.0798 26.2805C31.5324 26.009 28.841 24.6948 28.3393 24.5135C27.8374 24.3324 27.4725 24.242 27.1075 24.7859C26.7424 25.3289 25.6941 26.552 25.3746 26.9143C25.0554 27.2773 24.7359 27.3225 24.1887 27.0509C23.6409 26.7783 21.878 26.2055 19.7864 24.3553C18.1591 22.9155 17.0605 21.1376 16.7412 20.5938C16.4218 20.0508 16.707 19.7564 16.9814 19.4858C17.2274 19.2424 17.529 18.8515 17.803 18.5345C18.0759 18.2173 18.167 17.991 18.3496 17.6287C18.5323 17.2662 18.4408 16.9489 18.3042 16.6773C18.167 16.4056 17.1033 13.7194 16.6166 12.6455Z" fill="white"/>
</g>
<defs>
<linearGradient id="paint0_linear_10_152" x1="2124.56" y1="4234.4" x2="2124.56" y2="0.759277" gradientUnits="userSpaceOnUse">
<stop stop-color="#1FAF38"/>
<stop offset="1" stop-color="#60D669"/>
</linearGradient>
<linearGradient id="paint1_linear_10_152" x1="2200" y1="4385.45" x2="2200" y2="0" gradientUnits="userSpaceOnUse">
<stop stop-color="#F9F9F9"/>
<stop offset="1" stop-color="white"/>
</linearGradient>
<clipPath id="clip0_10_152">
<rect width="44" height="44" fill="white"/>
</clipPath>
</defs>
</svg>
