<svg width="48" height="48" viewBox="0 0 48 48" fill="none" xmlns="http://www.w3.org/2000/svg">
<path d="M19.7143 3.42858C18.123 3.42858 16.5969 4.06072 15.4717 5.18594C14.3465 6.31116 13.7143 7.83728 13.7143 9.42858V13.7143H9.42861C8.74662 13.7143 8.09257 13.9852 7.61033 14.4674C7.1281 14.9497 6.85718 15.6037 6.85718 16.2857V37.7143C6.85718 39.5329 7.57962 41.2771 8.86559 42.563C10.1516 43.849 11.8957 44.5714 13.7143 44.5714H31.0029L28.4315 42H13.7143C12.5777 42 11.4876 41.5485 10.6839 40.7448C9.88014 39.941 9.42861 38.8509 9.42861 37.7143V16.2857H27.4286V22.2857H30V16.2857H38.5715V24.9943L41.1429 27.5657V16.2857C41.1429 15.6037 40.872 14.9497 40.3897 14.4674C39.9075 13.9852 39.2534 13.7143 38.5715 13.7143H34.2857V9.42858C34.2859 8.2366 33.9311 7.07159 33.2664 6.08211C32.6018 5.09264 31.6575 4.32356 30.5539 3.87295C29.4504 3.42235 28.2377 3.31064 27.0704 3.55208C25.9031 3.79352 24.8342 4.37717 24 5.22858C23.4413 4.65857 22.7745 4.20577 22.0386 3.89669C21.3027 3.58761 20.5125 3.42847 19.7143 3.42858ZM31.7143 9.42858V13.7143H25.7143V9.42858C25.7151 8.79157 25.6144 8.1585 25.416 7.55315C25.8201 6.93509 26.4129 6.46399 27.1063 6.20997C27.7996 5.95594 28.5565 5.93255 29.2642 6.14329C29.9719 6.35403 30.5927 6.78762 31.0342 7.37956C31.4756 7.9715 31.7142 8.69015 31.7143 9.42858ZM19.7143 6.00001C20.6236 6.00001 21.4957 6.36123 22.1387 7.00421C22.7817 7.6472 23.1429 8.51927 23.1429 9.42858V13.7143H16.2857V9.42858C16.2857 8.51927 16.647 7.6472 17.29 7.00421C17.9329 6.36123 18.805 6.00001 19.7143 6.00001ZM24.0018 33.7372L24 27.4337C24 26.5244 24.3613 25.6523 25.0042 25.0094C25.6472 24.3664 26.5193 24.0052 27.4286 24.0052L33.7337 24.0086C34.6427 24.0083 35.5146 24.369 36.1577 25.0114L45.2829 34.1349C46.6217 35.472 46.6217 37.644 45.2829 38.9812L38.9812 45.2812C38.6628 45.5997 38.2848 45.8523 37.8687 46.0247C37.4526 46.1971 37.0067 46.2858 36.5563 46.2858C36.106 46.2858 35.66 46.1971 35.2439 46.0247C34.8279 45.8523 34.4499 45.5997 34.1315 45.2812L25.0063 36.1594C24.3637 35.517 24.0024 34.6458 24.0018 33.7372ZM27.4286 29.1429C27.4286 29.5975 27.6092 30.0336 27.9307 30.3551C28.2522 30.6765 28.6882 30.8572 29.1429 30.8572C29.5975 30.8572 30.0336 30.6765 30.3551 30.3551C30.6766 30.0336 30.8572 29.5975 30.8572 29.1429C30.8572 28.6882 30.6766 28.2522 30.3551 27.9307C30.0336 27.6092 29.5975 27.4286 29.1429 27.4286C28.6882 27.4286 28.2522 27.6092 27.9307 27.9307C27.6092 28.2522 27.4286 28.6882 27.4286 29.1429Z" fill="#0D99FF"/>
</svg>
