<svg width="125" height="125" viewBox="0 0 125 125" fill="none" xmlns="http://www.w3.org/2000/svg">
<g clip-path="url(#clip0_10_143)">
<path d="M63.5153 24.0305C65.2572 24.8792 64.5866 43.951 63.7379 45.6929C62.0405 49.1767 55.1174 50.1144 51.6782 52.7495C48.2389 55.3846 50.0253 60.5658 51.8117 65.747C52.5084 67.7676 55.3845 76.1093 59.717 76.0648C64.0495 76.0203 70.0793 72.492 73.5631 74.1894C75.305 75.038 87.5873 89.6438 86.7386 91.3857C83.3438 98.3533 75.5721 101.033 69.4977 100.229C63.4233 99.4246 59.9395 97.7272 53.8207 92.5905C47.7018 87.4539 43.3248 83.1659 38.8588 70.213C34.3928 57.26 35.197 51.1857 36.8498 43.3694C38.5027 35.5531 40.2001 32.0694 44.488 27.6924C48.776 23.3154 56.5478 20.6358 63.5153 24.0305Z" stroke="#0D99FF" stroke-width="2" stroke-linecap="round" stroke-linejoin="round"/>
<path d="M77.5606 48.2893C79.3337 50.4896 80.7111 52.9712 81.5873 55.5966C82.4627 58.1354 82.8896 60.8867 82.8484 63.6256" stroke="#0D99FF" stroke-width="2" stroke-linecap="round" stroke-linejoin="round" stroke-dasharray="4 4"/>
<path d="M87.4775 36.7832C91.7616 40.4655 94.9121 45.1474 96.6985 50.3285C98.4501 55.4927 98.8715 61.0866 97.7493 66.5749" stroke="#0D99FF" stroke-width="2" stroke-linecap="round" stroke-linejoin="round" stroke-dasharray="6 6"/>
</g>
<defs>
<clipPath id="clip0_10_143">
<rect width="93.007" height="93.007" fill="white" transform="translate(40.7372) rotate(25.9764)"/>
</clipPath>
</defs>
</svg>
